<mxfile host="app.diagrams.net" modified="2022-11-22T05:41:30.525Z" agent="5.0 (Macintosh; Intel Mac OS X 10_15_7) AppleWebKit/537.36 (KHTML, like Gecko) Chrome/107.0.0.0 Safari/537.36" etag="T_GpQoruoFhlCUOsOD6e" version="20.5.3" type="github">
  <diagram id="vzUAhLUFLshb-A-DB3ks" name="Page-1">
    <mxGraphModel dx="2304" dy="854" grid="1" gridSize="10" guides="1" tooltips="1" connect="1" arrows="1" fold="1" page="1" pageScale="1" pageWidth="850" pageHeight="1100" math="0" shadow="0">
      <root>
        <mxCell id="0" />
        <mxCell id="1" parent="0" />
        <mxCell id="ZPAmYN_CkGYpbZMgs9YU-15" style="rounded=0;orthogonalLoop=1;jettySize=auto;html=1;exitX=0.5;exitY=0;exitDx=0;exitDy=0;entryX=0.5;entryY=1;entryDx=0;entryDy=0;endArrow=none;endFill=0;" edge="1" parent="1" source="ZPAmYN_CkGYpbZMgs9YU-1" target="ZPAmYN_CkGYpbZMgs9YU-3">
          <mxGeometry relative="1" as="geometry" />
        </mxCell>
        <mxCell id="ZPAmYN_CkGYpbZMgs9YU-18" value="" style="edgeStyle=orthogonalEdgeStyle;rounded=0;orthogonalLoop=1;jettySize=auto;html=1;endArrow=none;endFill=0;entryX=0.5;entryY=1;entryDx=0;entryDy=0;startArrow=none;shape=link;" edge="1" parent="1" source="ZPAmYN_CkGYpbZMgs9YU-53" target="ZPAmYN_CkGYpbZMgs9YU-19">
          <mxGeometry relative="1" as="geometry">
            <mxPoint x="270" y="410" as="targetPoint" />
          </mxGeometry>
        </mxCell>
        <mxCell id="ZPAmYN_CkGYpbZMgs9YU-67" value="" style="edgeStyle=none;rounded=0;orthogonalLoop=1;jettySize=auto;html=1;endArrow=none;endFill=0;" edge="1" parent="1" source="ZPAmYN_CkGYpbZMgs9YU-1" target="ZPAmYN_CkGYpbZMgs9YU-66">
          <mxGeometry relative="1" as="geometry" />
        </mxCell>
        <mxCell id="ZPAmYN_CkGYpbZMgs9YU-69" style="edgeStyle=none;rounded=0;orthogonalLoop=1;jettySize=auto;html=1;exitX=1;exitY=0.5;exitDx=0;exitDy=0;entryX=0;entryY=0.5;entryDx=0;entryDy=0;endArrow=none;endFill=0;shape=link;" edge="1" parent="1" source="ZPAmYN_CkGYpbZMgs9YU-1" target="ZPAmYN_CkGYpbZMgs9YU-68">
          <mxGeometry relative="1" as="geometry" />
        </mxCell>
        <mxCell id="ZPAmYN_CkGYpbZMgs9YU-78" value="" style="edgeStyle=none;rounded=0;orthogonalLoop=1;jettySize=auto;html=1;endArrow=none;endFill=0;" edge="1" parent="1" source="ZPAmYN_CkGYpbZMgs9YU-1" target="ZPAmYN_CkGYpbZMgs9YU-77">
          <mxGeometry relative="1" as="geometry" />
        </mxCell>
        <mxCell id="ZPAmYN_CkGYpbZMgs9YU-1" value="연구 프로젝트" style="rounded=0;whiteSpace=wrap;html=1;" vertex="1" parent="1">
          <mxGeometry x="350" y="450" width="100" height="50" as="geometry" />
        </mxCell>
        <mxCell id="ZPAmYN_CkGYpbZMgs9YU-3" value="연구지원기관" style="ellipse;whiteSpace=wrap;html=1;" vertex="1" parent="1">
          <mxGeometry x="370" y="325" width="80" height="55" as="geometry" />
        </mxCell>
        <mxCell id="ZPAmYN_CkGYpbZMgs9YU-13" value="" style="edgeStyle=orthogonalEdgeStyle;rounded=0;orthogonalLoop=1;jettySize=auto;html=1;endArrow=none;endFill=0;" edge="1" parent="1" source="ZPAmYN_CkGYpbZMgs9YU-5" target="ZPAmYN_CkGYpbZMgs9YU-12">
          <mxGeometry relative="1" as="geometry" />
        </mxCell>
        <mxCell id="ZPAmYN_CkGYpbZMgs9YU-5" value="연구개발단계" style="rounded=0;whiteSpace=wrap;html=1;" vertex="1" parent="1">
          <mxGeometry x="690" y="450" width="100" height="50" as="geometry" />
        </mxCell>
        <mxCell id="ZPAmYN_CkGYpbZMgs9YU-12" value="먼 속성이있을까" style="ellipse;whiteSpace=wrap;html=1;rounded=0;" vertex="1" parent="1">
          <mxGeometry x="690" y="360" width="100" height="40" as="geometry" />
        </mxCell>
        <mxCell id="ZPAmYN_CkGYpbZMgs9YU-22" value="" style="edgeStyle=none;rounded=0;orthogonalLoop=1;jettySize=auto;html=1;endArrow=none;endFill=0;" edge="1" parent="1" source="ZPAmYN_CkGYpbZMgs9YU-19" target="ZPAmYN_CkGYpbZMgs9YU-21">
          <mxGeometry relative="1" as="geometry" />
        </mxCell>
        <mxCell id="ZPAmYN_CkGYpbZMgs9YU-24" value="" style="edgeStyle=none;rounded=0;orthogonalLoop=1;jettySize=auto;html=1;endArrow=none;endFill=0;" edge="1" parent="1" source="ZPAmYN_CkGYpbZMgs9YU-19" target="ZPAmYN_CkGYpbZMgs9YU-23">
          <mxGeometry relative="1" as="geometry" />
        </mxCell>
        <mxCell id="ZPAmYN_CkGYpbZMgs9YU-74" value="" style="edgeStyle=none;rounded=0;orthogonalLoop=1;jettySize=auto;html=1;endArrow=none;endFill=0;" edge="1" parent="1" source="ZPAmYN_CkGYpbZMgs9YU-19" target="ZPAmYN_CkGYpbZMgs9YU-73">
          <mxGeometry relative="1" as="geometry" />
        </mxCell>
        <mxCell id="ZPAmYN_CkGYpbZMgs9YU-19" value="주제" style="rounded=0;whiteSpace=wrap;html=1;" vertex="1" parent="1">
          <mxGeometry x="60" y="380" width="90" height="40" as="geometry" />
        </mxCell>
        <mxCell id="ZPAmYN_CkGYpbZMgs9YU-21" value="약물최적투약 방식" style="ellipse;whiteSpace=wrap;html=1;rounded=0;" vertex="1" parent="1">
          <mxGeometry x="-10" y="310" width="110" height="50" as="geometry" />
        </mxCell>
        <mxCell id="ZPAmYN_CkGYpbZMgs9YU-23" value="약품/실험기계" style="ellipse;whiteSpace=wrap;html=1;rounded=0;" vertex="1" parent="1">
          <mxGeometry x="140" y="305" width="120" height="60" as="geometry" />
        </mxCell>
        <mxCell id="ZPAmYN_CkGYpbZMgs9YU-33" value="" style="edgeStyle=none;rounded=0;orthogonalLoop=1;jettySize=auto;html=1;endArrow=none;endFill=0;" edge="1" parent="1" source="ZPAmYN_CkGYpbZMgs9YU-25" target="ZPAmYN_CkGYpbZMgs9YU-32">
          <mxGeometry relative="1" as="geometry" />
        </mxCell>
        <mxCell id="ZPAmYN_CkGYpbZMgs9YU-40" value="" style="edgeStyle=none;rounded=0;orthogonalLoop=1;jettySize=auto;html=1;endArrow=none;endFill=0;" edge="1" parent="1" source="ZPAmYN_CkGYpbZMgs9YU-25" target="ZPAmYN_CkGYpbZMgs9YU-39">
          <mxGeometry relative="1" as="geometry" />
        </mxCell>
        <mxCell id="ZPAmYN_CkGYpbZMgs9YU-25" value="연구보고서" style="rounded=0;whiteSpace=wrap;html=1;" vertex="1" parent="1">
          <mxGeometry x="350" y="690" width="100" height="50" as="geometry" />
        </mxCell>
        <mxCell id="ZPAmYN_CkGYpbZMgs9YU-29" style="edgeStyle=none;rounded=0;orthogonalLoop=1;jettySize=auto;html=1;exitX=0.5;exitY=1;exitDx=0;exitDy=0;entryX=0.5;entryY=0;entryDx=0;entryDy=0;endArrow=none;endFill=0;shape=link;" edge="1" parent="1" source="ZPAmYN_CkGYpbZMgs9YU-27" target="ZPAmYN_CkGYpbZMgs9YU-25">
          <mxGeometry relative="1" as="geometry" />
        </mxCell>
        <mxCell id="ZPAmYN_CkGYpbZMgs9YU-57" style="edgeStyle=none;rounded=0;orthogonalLoop=1;jettySize=auto;html=1;exitX=0.5;exitY=0;exitDx=0;exitDy=0;entryX=0.5;entryY=1;entryDx=0;entryDy=0;endArrow=classicThin;endFill=1;" edge="1" parent="1" source="ZPAmYN_CkGYpbZMgs9YU-27" target="ZPAmYN_CkGYpbZMgs9YU-1">
          <mxGeometry relative="1" as="geometry" />
        </mxCell>
        <mxCell id="ZPAmYN_CkGYpbZMgs9YU-27" value="도출" style="rhombus;whiteSpace=wrap;html=1;" vertex="1" parent="1">
          <mxGeometry x="360" y="560" width="80" height="80" as="geometry" />
        </mxCell>
        <mxCell id="ZPAmYN_CkGYpbZMgs9YU-32" value="작성일" style="ellipse;whiteSpace=wrap;html=1;rounded=0;" vertex="1" parent="1">
          <mxGeometry x="410" y="754" width="80" height="35" as="geometry" />
        </mxCell>
        <mxCell id="ZPAmYN_CkGYpbZMgs9YU-42" value="" style="edgeStyle=none;rounded=0;orthogonalLoop=1;jettySize=auto;html=1;endArrow=none;endFill=0;" edge="1" parent="1" source="ZPAmYN_CkGYpbZMgs9YU-38" target="ZPAmYN_CkGYpbZMgs9YU-41">
          <mxGeometry relative="1" as="geometry" />
        </mxCell>
        <mxCell id="ZPAmYN_CkGYpbZMgs9YU-44" value="" style="edgeStyle=none;rounded=0;orthogonalLoop=1;jettySize=auto;html=1;endArrow=none;endFill=0;" edge="1" parent="1" source="ZPAmYN_CkGYpbZMgs9YU-38" target="ZPAmYN_CkGYpbZMgs9YU-43">
          <mxGeometry relative="1" as="geometry" />
        </mxCell>
        <mxCell id="ZPAmYN_CkGYpbZMgs9YU-49" style="edgeStyle=none;rounded=0;orthogonalLoop=1;jettySize=auto;html=1;exitX=0.5;exitY=0;exitDx=0;exitDy=0;endArrow=none;endFill=0;shape=link;" edge="1" parent="1" source="ZPAmYN_CkGYpbZMgs9YU-38" target="ZPAmYN_CkGYpbZMgs9YU-47">
          <mxGeometry relative="1" as="geometry" />
        </mxCell>
        <mxCell id="ZPAmYN_CkGYpbZMgs9YU-62" style="edgeStyle=none;rounded=0;orthogonalLoop=1;jettySize=auto;html=1;exitX=1;exitY=0.5;exitDx=0;exitDy=0;entryX=0;entryY=0.5;entryDx=0;entryDy=0;endArrow=none;endFill=0;" edge="1" parent="1" source="ZPAmYN_CkGYpbZMgs9YU-38" target="ZPAmYN_CkGYpbZMgs9YU-61">
          <mxGeometry relative="1" as="geometry" />
        </mxCell>
        <mxCell id="ZPAmYN_CkGYpbZMgs9YU-76" value="" style="edgeStyle=none;rounded=0;orthogonalLoop=1;jettySize=auto;html=1;endArrow=none;endFill=0;" edge="1" parent="1" source="ZPAmYN_CkGYpbZMgs9YU-38" target="ZPAmYN_CkGYpbZMgs9YU-75">
          <mxGeometry relative="1" as="geometry" />
        </mxCell>
        <mxCell id="ZPAmYN_CkGYpbZMgs9YU-38" value="직원" style="rounded=0;whiteSpace=wrap;html=1;" vertex="1" parent="1">
          <mxGeometry x="80" y="705" width="80" height="50" as="geometry" />
        </mxCell>
        <mxCell id="ZPAmYN_CkGYpbZMgs9YU-39" value="&lt;u&gt;보고서 ID&lt;/u&gt;" style="ellipse;whiteSpace=wrap;html=1;rounded=0;" vertex="1" parent="1">
          <mxGeometry x="510" y="690" width="80" height="45" as="geometry" />
        </mxCell>
        <mxCell id="ZPAmYN_CkGYpbZMgs9YU-41" value="&lt;u&gt;직원 ID&lt;/u&gt;" style="ellipse;whiteSpace=wrap;html=1;rounded=0;" vertex="1" parent="1">
          <mxGeometry x="-50" y="690" width="80" height="40" as="geometry" />
        </mxCell>
        <mxCell id="ZPAmYN_CkGYpbZMgs9YU-43" value="이름" style="ellipse;whiteSpace=wrap;html=1;rounded=0;" vertex="1" parent="1">
          <mxGeometry x="20" y="630" width="60" height="30" as="geometry" />
        </mxCell>
        <mxCell id="ZPAmYN_CkGYpbZMgs9YU-50" style="edgeStyle=none;rounded=0;orthogonalLoop=1;jettySize=auto;html=1;exitX=1;exitY=0;exitDx=0;exitDy=0;entryX=0;entryY=1;entryDx=0;entryDy=0;endArrow=none;endFill=0;shape=link;" edge="1" parent="1" source="ZPAmYN_CkGYpbZMgs9YU-47" target="ZPAmYN_CkGYpbZMgs9YU-1">
          <mxGeometry relative="1" as="geometry" />
        </mxCell>
        <mxCell id="ZPAmYN_CkGYpbZMgs9YU-47" value="참여" style="rhombus;whiteSpace=wrap;html=1;" vertex="1" parent="1">
          <mxGeometry x="180" y="550" width="70" height="70" as="geometry" />
        </mxCell>
        <mxCell id="ZPAmYN_CkGYpbZMgs9YU-51" value="M" style="text;html=1;strokeColor=none;fillColor=none;align=center;verticalAlign=middle;whiteSpace=wrap;rounded=0;" vertex="1" parent="1">
          <mxGeometry x="115" y="680" width="60" height="30" as="geometry" />
        </mxCell>
        <mxCell id="ZPAmYN_CkGYpbZMgs9YU-52" value="N" style="text;html=1;strokeColor=none;fillColor=none;align=center;verticalAlign=middle;whiteSpace=wrap;rounded=0;" vertex="1" parent="1">
          <mxGeometry x="327" y="495" width="60" height="30" as="geometry" />
        </mxCell>
        <mxCell id="ZPAmYN_CkGYpbZMgs9YU-53" value="연구" style="rhombus;whiteSpace=wrap;html=1;" vertex="1" parent="1">
          <mxGeometry x="165" y="445" width="65" height="60" as="geometry" />
        </mxCell>
        <mxCell id="ZPAmYN_CkGYpbZMgs9YU-54" value="" style="rounded=0;orthogonalLoop=1;jettySize=auto;html=1;endArrow=none;endFill=0;entryX=1;entryY=0.5;entryDx=0;entryDy=0;exitX=0;exitY=0.5;exitDx=0;exitDy=0;shape=link;" edge="1" parent="1" source="ZPAmYN_CkGYpbZMgs9YU-1" target="ZPAmYN_CkGYpbZMgs9YU-53">
          <mxGeometry relative="1" as="geometry">
            <mxPoint x="340" y="475" as="sourcePoint" />
            <mxPoint x="105" y="420" as="targetPoint" />
          </mxGeometry>
        </mxCell>
        <mxCell id="ZPAmYN_CkGYpbZMgs9YU-55" style="edgeStyle=none;shape=link;rounded=0;orthogonalLoop=1;jettySize=auto;html=1;entryX=0;entryY=0.5;entryDx=0;entryDy=0;endArrow=none;endFill=0;" edge="1" parent="1" source="ZPAmYN_CkGYpbZMgs9YU-1" target="ZPAmYN_CkGYpbZMgs9YU-1">
          <mxGeometry relative="1" as="geometry" />
        </mxCell>
        <mxCell id="ZPAmYN_CkGYpbZMgs9YU-56" value="1" style="text;html=1;strokeColor=none;fillColor=none;align=center;verticalAlign=middle;whiteSpace=wrap;rounded=0;" vertex="1" parent="1">
          <mxGeometry x="310" y="450" width="60" height="30" as="geometry" />
        </mxCell>
        <mxCell id="ZPAmYN_CkGYpbZMgs9YU-58" value="N" style="text;html=1;strokeColor=none;fillColor=none;align=center;verticalAlign=middle;whiteSpace=wrap;rounded=0;" vertex="1" parent="1">
          <mxGeometry x="85" y="413.5" width="60" height="30" as="geometry" />
        </mxCell>
        <mxCell id="ZPAmYN_CkGYpbZMgs9YU-63" style="edgeStyle=none;rounded=0;orthogonalLoop=1;jettySize=auto;html=1;exitX=1;exitY=0.5;exitDx=0;exitDy=0;entryX=0;entryY=0.5;entryDx=0;entryDy=0;endArrow=none;endFill=0;shape=link;" edge="1" parent="1" source="ZPAmYN_CkGYpbZMgs9YU-61" target="ZPAmYN_CkGYpbZMgs9YU-25">
          <mxGeometry relative="1" as="geometry" />
        </mxCell>
        <mxCell id="ZPAmYN_CkGYpbZMgs9YU-61" value="작성" style="rhombus;whiteSpace=wrap;html=1;" vertex="1" parent="1">
          <mxGeometry x="220" y="700" width="60" height="60" as="geometry" />
        </mxCell>
        <mxCell id="ZPAmYN_CkGYpbZMgs9YU-64" value="N" style="text;html=1;strokeColor=none;fillColor=none;align=center;verticalAlign=middle;whiteSpace=wrap;rounded=0;" vertex="1" parent="1">
          <mxGeometry x="141" y="724" width="60" height="30" as="geometry" />
        </mxCell>
        <mxCell id="ZPAmYN_CkGYpbZMgs9YU-65" value="1" style="text;html=1;strokeColor=none;fillColor=none;align=center;verticalAlign=middle;whiteSpace=wrap;rounded=0;" vertex="1" parent="1">
          <mxGeometry x="310" y="690" width="60" height="30" as="geometry" />
        </mxCell>
        <mxCell id="ZPAmYN_CkGYpbZMgs9YU-66" value="&lt;u&gt;프로젝트 ID&lt;/u&gt;" style="ellipse;whiteSpace=wrap;html=1;rounded=0;" vertex="1" parent="1">
          <mxGeometry x="280" y="365" width="90" height="50" as="geometry" />
        </mxCell>
        <mxCell id="ZPAmYN_CkGYpbZMgs9YU-70" style="edgeStyle=none;rounded=0;orthogonalLoop=1;jettySize=auto;html=1;exitX=1;exitY=0.5;exitDx=0;exitDy=0;entryX=0;entryY=0.5;entryDx=0;entryDy=0;endArrow=none;endFill=0;" edge="1" parent="1" source="ZPAmYN_CkGYpbZMgs9YU-68" target="ZPAmYN_CkGYpbZMgs9YU-5">
          <mxGeometry relative="1" as="geometry" />
        </mxCell>
        <mxCell id="ZPAmYN_CkGYpbZMgs9YU-68" value="현황" style="rhombus;whiteSpace=wrap;html=1;" vertex="1" parent="1">
          <mxGeometry x="530" y="440" width="70" height="70" as="geometry" />
        </mxCell>
        <mxCell id="ZPAmYN_CkGYpbZMgs9YU-71" value="1" style="text;html=1;strokeColor=none;fillColor=none;align=center;verticalAlign=middle;whiteSpace=wrap;rounded=0;" vertex="1" parent="1">
          <mxGeometry x="650" y="445" width="60" height="30" as="geometry" />
        </mxCell>
        <mxCell id="ZPAmYN_CkGYpbZMgs9YU-72" value="N" style="text;html=1;strokeColor=none;fillColor=none;align=center;verticalAlign=middle;whiteSpace=wrap;rounded=0;" vertex="1" parent="1">
          <mxGeometry x="432" y="446" width="60" height="30" as="geometry" />
        </mxCell>
        <mxCell id="ZPAmYN_CkGYpbZMgs9YU-73" value="&lt;u&gt;주제 ID&lt;/u&gt;" style="ellipse;whiteSpace=wrap;html=1;rounded=0;" vertex="1" parent="1">
          <mxGeometry x="-90" y="370" width="70" height="40" as="geometry" />
        </mxCell>
        <mxCell id="ZPAmYN_CkGYpbZMgs9YU-75" value="수석조사관 여부" style="ellipse;whiteSpace=wrap;html=1;rounded=0;" vertex="1" parent="1">
          <mxGeometry x="10" y="789" width="100" height="40" as="geometry" />
        </mxCell>
        <mxCell id="ZPAmYN_CkGYpbZMgs9YU-77" value="연구개시일" style="ellipse;whiteSpace=wrap;html=1;rounded=0;" vertex="1" parent="1">
          <mxGeometry x="460" y="345" width="80" height="35" as="geometry" />
        </mxCell>
        <mxCell id="ZPAmYN_CkGYpbZMgs9YU-79" value="연구 지원 기관?" style="rounded=0;whiteSpace=wrap;html=1;" vertex="1" parent="1">
          <mxGeometry x="280" y="190" width="120" height="60" as="geometry" />
        </mxCell>
        <mxCell id="ZPAmYN_CkGYpbZMgs9YU-81" value="제약회사" style="rounded=0;whiteSpace=wrap;html=1;" vertex="1" parent="1">
          <mxGeometry x="140" y="140" width="120" height="60" as="geometry" />
        </mxCell>
      </root>
    </mxGraphModel>
  </diagram>
</mxfile>
